<svg xmlns="http://www.w3.org/2000/svg" width="520" height="300" viewBox="0 0 520 300">
  <rect width="520" height="300" fill="#0f1117"/>
  <!-- Open book shape - left page -->
  <path d="M260,40 Q200,45 140,50 L120,250 Q190,245 260,240 Z" fill="none" stroke="#3b82f6" stroke-width="1.2" opacity="0.18"/>
  <!-- Open book shape - right page -->
  <path d="M260,40 Q320,45 380,50 L400,250 Q330,245 260,240 Z" fill="none" stroke="#3b82f6" stroke-width="1.2" opacity="0.18"/>
  <!-- Spine -->
  <line x1="260" y1="40" x2="260" y2="240" stroke="#3b82f6" stroke-width="1.5" opacity="0.2"/>
  <!-- Text lines left page -->
  <line x1="155" y1="80" x2="245" y2="75" stroke="#3b82f6" stroke-width="1.5" opacity="0.1" stroke-linecap="round"/>
  <line x1="152" y1="100" x2="247" y2="95" stroke="#3b82f6" stroke-width="1.5" opacity="0.1" stroke-linecap="round"/>
  <line x1="150" y1="120" x2="248" y2="115" stroke="#3b82f6" stroke-width="1.5" opacity="0.1" stroke-linecap="round"/>
  <line x1="147" y1="140" x2="250" y2="135" stroke="#3b82f6" stroke-width="1.5" opacity="0.1" stroke-linecap="round"/>
  <line x1="145" y1="160" x2="215" y2="157" stroke="#3b82f6" stroke-width="1.5" opacity="0.08" stroke-linecap="round"/>
  <line x1="142" y1="180" x2="252" y2="175" stroke="#3b82f6" stroke-width="1.5" opacity="0.1" stroke-linecap="round"/>
  <line x1="140" y1="200" x2="253" y2="195" stroke="#3b82f6" stroke-width="1.5" opacity="0.1" stroke-linecap="round"/>
  <line x1="137" y1="220" x2="200" y2="217" stroke="#3b82f6" stroke-width="1.5" opacity="0.08" stroke-linecap="round"/>
  <!-- Text lines right page -->
  <line x1="275" y1="75" x2="365" y2="80" stroke="#3b82f6" stroke-width="1.5" opacity="0.1" stroke-linecap="round"/>
  <line x1="273" y1="95" x2="368" y2="100" stroke="#3b82f6" stroke-width="1.5" opacity="0.1" stroke-linecap="round"/>
  <line x1="272" y1="115" x2="370" y2="120" stroke="#3b82f6" stroke-width="1.5" opacity="0.1" stroke-linecap="round"/>
  <line x1="270" y1="135" x2="373" y2="140" stroke="#3b82f6" stroke-width="1.5" opacity="0.1" stroke-linecap="round"/>
  <line x1="268" y1="155" x2="340" y2="158" stroke="#3b82f6" stroke-width="1.5" opacity="0.08" stroke-linecap="round"/>
  <line x1="267" y1="175" x2="377" y2="180" stroke="#3b82f6" stroke-width="1.5" opacity="0.1" stroke-linecap="round"/>
  <line x1="266" y1="195" x2="380" y2="200" stroke="#3b82f6" stroke-width="1.5" opacity="0.1" stroke-linecap="round"/>
  <line x1="265" y1="215" x2="350" y2="218" stroke="#3b82f6" stroke-width="1.5" opacity="0.08" stroke-linecap="round"/>
  <!-- Subtle page corners -->
  <path d="M120,250 Q120,260 130,260" fill="none" stroke="#3b82f6" stroke-width="0.8" opacity="0.12"/>
  <path d="M400,250 Q400,260 390,260" fill="none" stroke="#3b82f6" stroke-width="0.8" opacity="0.12"/>
  <!-- Decorative dots -->
  <circle cx="70" cy="60" r="1.5" fill="#3b82f6" opacity="0.1"/>
  <circle cx="450" cy="70" r="1.5" fill="#3b82f6" opacity="0.1"/>
  <circle cx="60" cy="270" r="1" fill="#3b82f6" opacity="0.08"/>
  <circle cx="460" cy="260" r="1" fill="#3b82f6" opacity="0.08"/>
</svg>
