<svg xmlns="http://www.w3.org/2000/svg" width="520" height="300" viewBox="0 0 520 300">
  <rect width="520" height="300" fill="#0f1117"/>
  <!-- Ground line -->
  <line x1="30" y1="260" x2="490" y2="260" stroke="#3b82f6" stroke-width="1" opacity="0.15"/>
  <!-- Building 1 - tall -->
  <rect x="80" y="80" width="70" height="180" fill="none" stroke="#3b82f6" stroke-width="1.2" opacity="0.18"/>
  <!-- Windows building 1 -->
  <rect x="90" y="95" width="15" height="12" fill="none" stroke="#3b82f6" stroke-width="0.7" opacity="0.12"/>
  <rect x="115" y="95" width="15" height="12" fill="none" stroke="#3b82f6" stroke-width="0.7" opacity="0.12"/>
  <rect x="90" y="120" width="15" height="12" fill="none" stroke="#3b82f6" stroke-width="0.7" opacity="0.12"/>
  <rect x="115" y="120" width="15" height="12" fill="none" stroke="#3b82f6" stroke-width="0.7" opacity="0.12"/>
  <rect x="90" y="145" width="15" height="12" fill="none" stroke="#3b82f6" stroke-width="0.7" opacity="0.12"/>
  <rect x="115" y="145" width="15" height="12" fill="none" stroke="#3b82f6" stroke-width="0.7" opacity="0.12"/>
  <rect x="90" y="170" width="15" height="12" fill="none" stroke="#3b82f6" stroke-width="0.7" opacity="0.12"/>
  <rect x="115" y="170" width="15" height="12" fill="none" stroke="#3b82f6" stroke-width="0.7" opacity="0.12"/>
  <rect x="90" y="195" width="15" height="12" fill="none" stroke="#3b82f6" stroke-width="0.7" opacity="0.1"/>
  <rect x="115" y="195" width="15" height="12" fill="none" stroke="#3b82f6" stroke-width="0.7" opacity="0.1"/>
  <rect x="90" y="220" width="15" height="12" fill="none" stroke="#3b82f6" stroke-width="0.7" opacity="0.1"/>
  <rect x="115" y="220" width="15" height="12" fill="none" stroke="#3b82f6" stroke-width="0.7" opacity="0.1"/>
  <!-- Building 2 - medium with construction wireframe -->
  <rect x="180" y="130" width="90" height="130" fill="none" stroke="#3b82f6" stroke-width="1.2" opacity="0.18"/>
  <!-- Wireframe / construction lines -->
  <line x1="180" y1="130" x2="270" y2="260" stroke="#3b82f6" stroke-width="0.5" opacity="0.1"/>
  <line x1="270" y1="130" x2="180" y2="260" stroke="#3b82f6" stroke-width="0.5" opacity="0.1"/>
  <line x1="180" y1="195" x2="270" y2="195" stroke="#3b82f6" stroke-width="0.5" opacity="0.1"/>
  <!-- Crane -->
  <line x1="225" y1="130" x2="225" y2="40" stroke="#3b82f6" stroke-width="1.5" opacity="0.2"/>
  <line x1="225" y1="50" x2="350" y2="50" stroke="#3b82f6" stroke-width="1.2" opacity="0.18"/>
  <line x1="350" y1="50" x2="350" y2="90" stroke="#3b82f6" stroke-width="0.8" opacity="0.15" stroke-dasharray="4,3"/>
  <line x1="225" y1="50" x2="190" y2="50" stroke="#3b82f6" stroke-width="1.2" opacity="0.15"/>
  <!-- Support cable -->
  <line x1="225" y1="40" x2="350" y2="50" stroke="#3b82f6" stroke-width="0.6" opacity="0.1"/>
  <line x1="225" y1="40" x2="190" y2="50" stroke="#3b82f6" stroke-width="0.6" opacity="0.1"/>
  <!-- Building 3 - short -->
  <rect x="370" y="180" width="80" height="80" fill="none" stroke="#3b82f6" stroke-width="1.2" opacity="0.18"/>
  <rect x="382" y="195" width="12" height="10" fill="none" stroke="#3b82f6" stroke-width="0.7" opacity="0.12"/>
  <rect x="404" y="195" width="12" height="10" fill="none" stroke="#3b82f6" stroke-width="0.7" opacity="0.12"/>
  <rect x="426" y="195" width="12" height="10" fill="none" stroke="#3b82f6" stroke-width="0.7" opacity="0.12"/>
  <rect x="382" y="220" width="12" height="10" fill="none" stroke="#3b82f6" stroke-width="0.7" opacity="0.12"/>
  <rect x="404" y="220" width="12" height="10" fill="none" stroke="#3b82f6" stroke-width="0.7" opacity="0.12"/>
  <rect x="426" y="220" width="12" height="10" fill="none" stroke="#3b82f6" stroke-width="0.7" opacity="0.12"/>
  <!-- Blueprint dimension lines -->
  <line x1="340" y1="90" x2="350" y2="90" stroke="#3b82f6" stroke-width="0.8" opacity="0.15"/>
</svg>
