<svg xmlns="http://www.w3.org/2000/svg" width="520" height="300" viewBox="0 0 520 300">
  <rect width="520" height="300" fill="#0f1117"/>
  <!-- Axis lines -->
  <line x1="60" y1="260" x2="480" y2="260" stroke="#f59e0b" stroke-width="1" opacity="0.18"/>
  <line x1="60" y1="260" x2="60" y2="30" stroke="#f59e0b" stroke-width="1" opacity="0.18"/>
  <!-- Grid lines horizontal -->
  <line x1="60" y1="210" x2="480" y2="210" stroke="#f59e0b" stroke-width="0.5" opacity="0.08"/>
  <line x1="60" y1="160" x2="480" y2="160" stroke="#f59e0b" stroke-width="0.5" opacity="0.08"/>
  <line x1="60" y1="110" x2="480" y2="110" stroke="#f59e0b" stroke-width="0.5" opacity="0.08"/>
  <line x1="60" y1="60" x2="480" y2="60" stroke="#f59e0b" stroke-width="0.5" opacity="0.08"/>
  <!-- Grid lines vertical -->
  <line x1="130" y1="30" x2="130" y2="260" stroke="#f59e0b" stroke-width="0.5" opacity="0.08"/>
  <line x1="200" y1="30" x2="200" y2="260" stroke="#f59e0b" stroke-width="0.5" opacity="0.08"/>
  <line x1="270" y1="30" x2="270" y2="260" stroke="#f59e0b" stroke-width="0.5" opacity="0.08"/>
  <line x1="340" y1="30" x2="340" y2="260" stroke="#f59e0b" stroke-width="0.5" opacity="0.08"/>
  <line x1="410" y1="30" x2="410" y2="260" stroke="#f59e0b" stroke-width="0.5" opacity="0.08"/>
  <!-- Ascending growth line -->
  <polyline points="60,250 100,245 140,235 180,228 220,210 260,185 300,160 340,130 380,105 420,75 460,50" fill="none" stroke="#f59e0b" stroke-width="2" opacity="0.22" stroke-linecap="round" stroke-linejoin="round"/>
  <!-- Data points -->
  <circle cx="60" cy="250" r="3" fill="#f59e0b" opacity="0.2"/>
  <circle cx="140" cy="235" r="3" fill="#f59e0b" opacity="0.2"/>
  <circle cx="220" cy="210" r="3" fill="#f59e0b" opacity="0.2"/>
  <circle cx="300" cy="160" r="3" fill="#f59e0b" opacity="0.2"/>
  <circle cx="380" cy="105" r="3" fill="#f59e0b" opacity="0.2"/>
  <circle cx="460" cy="50" r="3" fill="#f59e0b" opacity="0.25"/>
  <!-- Tick marks on axes -->
  <line x1="130" y1="256" x2="130" y2="264" stroke="#f59e0b" stroke-width="1" opacity="0.15"/>
  <line x1="200" y1="256" x2="200" y2="264" stroke="#f59e0b" stroke-width="1" opacity="0.15"/>
  <line x1="270" y1="256" x2="270" y2="264" stroke="#f59e0b" stroke-width="1" opacity="0.15"/>
  <line x1="340" y1="256" x2="340" y2="264" stroke="#f59e0b" stroke-width="1" opacity="0.15"/>
  <line x1="410" y1="256" x2="410" y2="264" stroke="#f59e0b" stroke-width="1" opacity="0.15"/>
  <!-- Timeline markers -->
  <line x1="56" y1="210" x2="64" y2="210" stroke="#f59e0b" stroke-width="1" opacity="0.15"/>
  <line x1="56" y1="160" x2="64" y2="160" stroke="#f59e0b" stroke-width="1" opacity="0.15"/>
  <line x1="56" y1="110" x2="64" y2="110" stroke="#f59e0b" stroke-width="1" opacity="0.15"/>
  <line x1="56" y1="60" x2="64" y2="60" stroke="#f59e0b" stroke-width="1" opacity="0.15"/>
</svg>
