<svg xmlns="http://www.w3.org/2000/svg" width="520" height="300" viewBox="0 0 520 300">
  <rect width="520" height="300" fill="#0f1117"/>
  <!-- Neural network nodes -->
  <!-- Layer 1 -->
  <circle cx="80" cy="60" r="6" fill="none" stroke="#10b981" stroke-width="1.2" opacity="0.2"/>
  <circle cx="80" cy="120" r="6" fill="none" stroke="#10b981" stroke-width="1.2" opacity="0.2"/>
  <circle cx="80" cy="180" r="6" fill="none" stroke="#10b981" stroke-width="1.2" opacity="0.2"/>
  <circle cx="80" cy="240" r="6" fill="none" stroke="#10b981" stroke-width="1.2" opacity="0.2"/>
  <!-- Layer 2 -->
  <circle cx="200" cy="80" r="7" fill="none" stroke="#10b981" stroke-width="1.2" opacity="0.22"/>
  <circle cx="200" cy="150" r="7" fill="none" stroke="#10b981" stroke-width="1.2" opacity="0.22"/>
  <circle cx="200" cy="220" r="7" fill="none" stroke="#10b981" stroke-width="1.2" opacity="0.22"/>
  <!-- Layer 3 -->
  <circle cx="320" cy="90" r="8" fill="none" stroke="#10b981" stroke-width="1.2" opacity="0.22"/>
  <circle cx="320" cy="150" r="8" fill="none" stroke="#10b981" stroke-width="1.2" opacity="0.22"/>
  <circle cx="320" cy="210" r="8" fill="none" stroke="#10b981" stroke-width="1.2" opacity="0.22"/>
  <!-- Layer 4 -->
  <circle cx="440" cy="120" r="7" fill="none" stroke="#10b981" stroke-width="1.2" opacity="0.2"/>
  <circle cx="440" cy="180" r="7" fill="none" stroke="#10b981" stroke-width="1.2" opacity="0.2"/>
  <!-- Connections L1-L2 -->
  <line x1="86" y1="60" x2="193" y2="80" stroke="#10b981" stroke-width="0.8" opacity="0.12"/>
  <line x1="86" y1="60" x2="193" y2="150" stroke="#10b981" stroke-width="0.8" opacity="0.1"/>
  <line x1="86" y1="120" x2="193" y2="80" stroke="#10b981" stroke-width="0.8" opacity="0.1"/>
  <line x1="86" y1="120" x2="193" y2="150" stroke="#10b981" stroke-width="0.8" opacity="0.12"/>
  <line x1="86" y1="120" x2="193" y2="220" stroke="#10b981" stroke-width="0.8" opacity="0.1"/>
  <line x1="86" y1="180" x2="193" y2="150" stroke="#10b981" stroke-width="0.8" opacity="0.12"/>
  <line x1="86" y1="180" x2="193" y2="220" stroke="#10b981" stroke-width="0.8" opacity="0.1"/>
  <line x1="86" y1="240" x2="193" y2="220" stroke="#10b981" stroke-width="0.8" opacity="0.12"/>
  <line x1="86" y1="240" x2="193" y2="150" stroke="#10b981" stroke-width="0.8" opacity="0.1"/>
  <!-- Connections L2-L3 -->
  <line x1="207" y1="80" x2="312" y2="90" stroke="#10b981" stroke-width="0.8" opacity="0.12"/>
  <line x1="207" y1="80" x2="312" y2="150" stroke="#10b981" stroke-width="0.8" opacity="0.1"/>
  <line x1="207" y1="150" x2="312" y2="90" stroke="#10b981" stroke-width="0.8" opacity="0.1"/>
  <line x1="207" y1="150" x2="312" y2="150" stroke="#10b981" stroke-width="0.8" opacity="0.15"/>
  <line x1="207" y1="150" x2="312" y2="210" stroke="#10b981" stroke-width="0.8" opacity="0.1"/>
  <line x1="207" y1="220" x2="312" y2="150" stroke="#10b981" stroke-width="0.8" opacity="0.1"/>
  <line x1="207" y1="220" x2="312" y2="210" stroke="#10b981" stroke-width="0.8" opacity="0.12"/>
  <!-- Connections L3-L4 -->
  <line x1="328" y1="90" x2="433" y2="120" stroke="#10b981" stroke-width="0.8" opacity="0.12"/>
  <line x1="328" y1="90" x2="433" y2="180" stroke="#10b981" stroke-width="0.8" opacity="0.1"/>
  <line x1="328" y1="150" x2="433" y2="120" stroke="#10b981" stroke-width="0.8" opacity="0.12"/>
  <line x1="328" y1="150" x2="433" y2="180" stroke="#10b981" stroke-width="0.8" opacity="0.12"/>
  <line x1="328" y1="210" x2="433" y2="120" stroke="#10b981" stroke-width="0.8" opacity="0.1"/>
  <line x1="328" y1="210" x2="433" y2="180" stroke="#10b981" stroke-width="0.8" opacity="0.12"/>
  <!-- Small decorative dots -->
  <circle cx="140" cy="40" r="1.5" fill="#10b981" opacity="0.1"/>
  <circle cx="380" cy="50" r="1.5" fill="#10b981" opacity="0.1"/>
  <circle cx="480" cy="260" r="1.5" fill="#10b981" opacity="0.1"/>
  <circle cx="40" cy="270" r="1.5" fill="#10b981" opacity="0.1"/>
</svg>
