<svg xmlns="http://www.w3.org/2000/svg" width="520" height="300" viewBox="0 0 520 300">
  <rect width="520" height="300" fill="#0f1117"/>
  <!-- VR headset outline -->
  <path d="M130,110 Q130,80 180,70 L340,70 Q390,80 390,110 L390,190 Q390,220 340,230 L300,230 Q280,230 270,215 L260,200 L250,215 Q240,230 220,230 L180,230 Q130,220 130,190 Z" fill="none" stroke="#8b5cf6" stroke-width="1.5" opacity="0.2"/>
  <!-- Left lens -->
  <ellipse cx="200" cy="145" rx="40" ry="42" fill="none" stroke="#8b5cf6" stroke-width="1" opacity="0.18"/>
  <ellipse cx="200" cy="145" rx="28" ry="30" fill="none" stroke="#8b5cf6" stroke-width="0.6" opacity="0.1"/>
  <!-- Right lens -->
  <ellipse cx="320" cy="145" rx="40" ry="42" fill="none" stroke="#8b5cf6" stroke-width="1" opacity="0.18"/>
  <ellipse cx="320" cy="145" rx="28" ry="30" fill="none" stroke="#8b5cf6" stroke-width="0.6" opacity="0.1"/>
  <!-- Bridge -->
  <line x1="240" y1="145" x2="280" y2="145" stroke="#8b5cf6" stroke-width="0.8" opacity="0.12"/>
  <!-- Spatial grid lines emanating outward -->
  <line x1="110" y1="100" x2="60" y2="60" stroke="#8b5cf6" stroke-width="0.6" opacity="0.1"/>
  <line x1="110" y1="150" x2="40" y2="150" stroke="#8b5cf6" stroke-width="0.6" opacity="0.1"/>
  <line x1="110" y1="200" x2="60" y2="240" stroke="#8b5cf6" stroke-width="0.6" opacity="0.1"/>
  <line x1="410" y1="100" x2="460" y2="60" stroke="#8b5cf6" stroke-width="0.6" opacity="0.1"/>
  <line x1="410" y1="150" x2="480" y2="150" stroke="#8b5cf6" stroke-width="0.6" opacity="0.1"/>
  <line x1="410" y1="200" x2="460" y2="240" stroke="#8b5cf6" stroke-width="0.6" opacity="0.1"/>
  <!-- Spatial dots -->
  <circle cx="60" cy="60" r="2" fill="#8b5cf6" opacity="0.15"/>
  <circle cx="40" cy="150" r="2" fill="#8b5cf6" opacity="0.15"/>
  <circle cx="60" cy="240" r="2" fill="#8b5cf6" opacity="0.15"/>
  <circle cx="460" cy="60" r="2" fill="#8b5cf6" opacity="0.15"/>
  <circle cx="480" cy="150" r="2" fill="#8b5cf6" opacity="0.15"/>
  <circle cx="460" cy="240" r="2" fill="#8b5cf6" opacity="0.15"/>
  <!-- Top spatial lines -->
  <line x1="200" y1="50" x2="200" y2="20" stroke="#8b5cf6" stroke-width="0.5" opacity="0.08"/>
  <line x1="260" y1="55" x2="260" y2="15" stroke="#8b5cf6" stroke-width="0.5" opacity="0.08"/>
  <line x1="320" y1="50" x2="320" y2="20" stroke="#8b5cf6" stroke-width="0.5" opacity="0.08"/>
  <!-- Bottom spatial lines -->
  <line x1="200" y1="250" x2="200" y2="280" stroke="#8b5cf6" stroke-width="0.5" opacity="0.08"/>
  <line x1="260" y1="245" x2="260" y2="285" stroke="#8b5cf6" stroke-width="0.5" opacity="0.08"/>
  <line x1="320" y1="250" x2="320" y2="280" stroke="#8b5cf6" stroke-width="0.5" opacity="0.08"/>
  <!-- Small spatial dots -->
  <circle cx="200" cy="20" r="1.5" fill="#8b5cf6" opacity="0.1"/>
  <circle cx="260" cy="15" r="1.5" fill="#8b5cf6" opacity="0.1"/>
  <circle cx="320" cy="20" r="1.5" fill="#8b5cf6" opacity="0.1"/>
  <circle cx="200" cy="280" r="1.5" fill="#8b5cf6" opacity="0.1"/>
  <circle cx="260" cy="285" r="1.5" fill="#8b5cf6" opacity="0.1"/>
  <circle cx="320" cy="280" r="1.5" fill="#8b5cf6" opacity="0.1"/>
</svg>
