<svg xmlns="http://www.w3.org/2000/svg" width="520" height="300" viewBox="0 0 520 300">
  <rect width="520" height="300" fill="#0f1117"/>
  <!-- Column 1 -->
  <rect x="60" y="60" width="30" height="200" fill="none" stroke="#3b82f6" stroke-width="1" opacity="0.18"/>
  <!-- Fluting lines -->
  <line x1="68" y1="75" x2="68" y2="245" stroke="#3b82f6" stroke-width="0.5" opacity="0.1"/>
  <line x1="75" y1="75" x2="75" y2="245" stroke="#3b82f6" stroke-width="0.5" opacity="0.1"/>
  <line x1="82" y1="75" x2="82" y2="245" stroke="#3b82f6" stroke-width="0.5" opacity="0.1"/>
  <!-- Capital -->
  <rect x="52" y="50" width="46" height="14" rx="2" fill="none" stroke="#3b82f6" stroke-width="1" opacity="0.18"/>
  <!-- Base -->
  <rect x="52" y="256" width="46" height="10" rx="1" fill="none" stroke="#3b82f6" stroke-width="1" opacity="0.15"/>
  <!-- Column 2 -->
  <rect x="160" y="60" width="30" height="200" fill="none" stroke="#3b82f6" stroke-width="1" opacity="0.18"/>
  <line x1="168" y1="75" x2="168" y2="245" stroke="#3b82f6" stroke-width="0.5" opacity="0.1"/>
  <line x1="175" y1="75" x2="175" y2="245" stroke="#3b82f6" stroke-width="0.5" opacity="0.1"/>
  <line x1="182" y1="75" x2="182" y2="245" stroke="#3b82f6" stroke-width="0.5" opacity="0.1"/>
  <rect x="152" y="50" width="46" height="14" rx="2" fill="none" stroke="#3b82f6" stroke-width="1" opacity="0.18"/>
  <rect x="152" y="256" width="46" height="10" rx="1" fill="none" stroke="#3b82f6" stroke-width="1" opacity="0.15"/>
  <!-- Column 3 -->
  <rect x="260" y="60" width="30" height="200" fill="none" stroke="#3b82f6" stroke-width="1" opacity="0.18"/>
  <line x1="268" y1="75" x2="268" y2="245" stroke="#3b82f6" stroke-width="0.5" opacity="0.1"/>
  <line x1="275" y1="75" x2="275" y2="245" stroke="#3b82f6" stroke-width="0.5" opacity="0.1"/>
  <line x1="282" y1="75" x2="282" y2="245" stroke="#3b82f6" stroke-width="0.5" opacity="0.1"/>
  <rect x="252" y="50" width="46" height="14" rx="2" fill="none" stroke="#3b82f6" stroke-width="1" opacity="0.18"/>
  <rect x="252" y="256" width="46" height="10" rx="1" fill="none" stroke="#3b82f6" stroke-width="1" opacity="0.15"/>
  <!-- Column 4 -->
  <rect x="360" y="60" width="30" height="200" fill="none" stroke="#3b82f6" stroke-width="1" opacity="0.18"/>
  <line x1="368" y1="75" x2="368" y2="245" stroke="#3b82f6" stroke-width="0.5" opacity="0.1"/>
  <line x1="375" y1="75" x2="375" y2="245" stroke="#3b82f6" stroke-width="0.5" opacity="0.1"/>
  <line x1="382" y1="75" x2="382" y2="245" stroke="#3b82f6" stroke-width="0.5" opacity="0.1"/>
  <rect x="352" y="50" width="46" height="14" rx="2" fill="none" stroke="#3b82f6" stroke-width="1" opacity="0.18"/>
  <rect x="352" y="256" width="46" height="10" rx="1" fill="none" stroke="#3b82f6" stroke-width="1" opacity="0.15"/>
  <!-- Column 5 -->
  <rect x="460" y="60" width="30" height="200" fill="none" stroke="#3b82f6" stroke-width="1" opacity="0.15"/>
  <line x1="468" y1="75" x2="468" y2="245" stroke="#3b82f6" stroke-width="0.5" opacity="0.08"/>
  <line x1="475" y1="75" x2="475" y2="245" stroke="#3b82f6" stroke-width="0.5" opacity="0.08"/>
  <line x1="482" y1="75" x2="482" y2="245" stroke="#3b82f6" stroke-width="0.5" opacity="0.08"/>
  <rect x="452" y="50" width="46" height="14" rx="2" fill="none" stroke="#3b82f6" stroke-width="1" opacity="0.15"/>
  <rect x="452" y="256" width="46" height="10" rx="1" fill="none" stroke="#3b82f6" stroke-width="1" opacity="0.12"/>
  <!-- Entablature (top beam) -->
  <line x1="40" y1="42" x2="500" y2="42" stroke="#3b82f6" stroke-width="1.5" opacity="0.2"/>
  <line x1="40" y1="36" x2="500" y2="36" stroke="#3b82f6" stroke-width="1" opacity="0.12"/>
  <!-- Pediment triangle -->
  <polyline points="40,36 270,10 500,36" fill="none" stroke="#3b82f6" stroke-width="1" opacity="0.15"/>
</svg>
