<svg xmlns="http://www.w3.org/2000/svg" width="520" height="300" viewBox="0 0 520 300">
  <rect width="520" height="300" fill="#0f1117"/>
  <!-- Flower center -->
  <circle cx="260" cy="140" r="18" fill="none" stroke="#06b6d4" stroke-width="1.5" opacity="0.22"/>
  <circle cx="260" cy="140" r="8" fill="#06b6d4" opacity="0.1"/>
  <!-- Petals -->
  <ellipse cx="260" cy="100" rx="16" ry="28" fill="none" stroke="#06b6d4" stroke-width="1" opacity="0.18" transform="rotate(0,260,140)"/>
  <ellipse cx="260" cy="100" rx="16" ry="28" fill="none" stroke="#06b6d4" stroke-width="1" opacity="0.18" transform="rotate(45,260,140)"/>
  <ellipse cx="260" cy="100" rx="16" ry="28" fill="none" stroke="#06b6d4" stroke-width="1" opacity="0.18" transform="rotate(90,260,140)"/>
  <ellipse cx="260" cy="100" rx="16" ry="28" fill="none" stroke="#06b6d4" stroke-width="1" opacity="0.18" transform="rotate(135,260,140)"/>
  <ellipse cx="260" cy="100" rx="16" ry="28" fill="none" stroke="#06b6d4" stroke-width="1" opacity="0.18" transform="rotate(180,260,140)"/>
  <ellipse cx="260" cy="100" rx="16" ry="28" fill="none" stroke="#06b6d4" stroke-width="1" opacity="0.18" transform="rotate(225,260,140)"/>
  <ellipse cx="260" cy="100" rx="16" ry="28" fill="none" stroke="#06b6d4" stroke-width="1" opacity="0.18" transform="rotate(270,260,140)"/>
  <ellipse cx="260" cy="100" rx="16" ry="28" fill="none" stroke="#06b6d4" stroke-width="1" opacity="0.18" transform="rotate(315,260,140)"/>
  <!-- Stem -->
  <path d="M260,168 Q258,200 255,230 Q253,250 250,280" fill="none" stroke="#06b6d4" stroke-width="1.5" opacity="0.18"/>
  <!-- Leaves -->
  <path d="M256,210 Q230,195 210,205 Q230,210 256,210" fill="#06b6d4" opacity="0.08" stroke="#06b6d4" stroke-width="0.8" opacity="0.15"/>
  <path d="M258,235 Q285,220 305,228 Q285,233 258,235" fill="#06b6d4" opacity="0.08" stroke="#06b6d4" stroke-width="0.8" opacity="0.15"/>
  <!-- Small secondary flowers -->
  <circle cx="120" cy="100" r="8" fill="none" stroke="#06b6d4" stroke-width="0.8" opacity="0.12"/>
  <ellipse cx="120" cy="82" rx="6" ry="12" fill="none" stroke="#06b6d4" stroke-width="0.5" opacity="0.1" transform="rotate(0,120,100)"/>
  <ellipse cx="120" cy="82" rx="6" ry="12" fill="none" stroke="#06b6d4" stroke-width="0.5" opacity="0.1" transform="rotate(72,120,100)"/>
  <ellipse cx="120" cy="82" rx="6" ry="12" fill="none" stroke="#06b6d4" stroke-width="0.5" opacity="0.1" transform="rotate(144,120,100)"/>
  <ellipse cx="120" cy="82" rx="6" ry="12" fill="none" stroke="#06b6d4" stroke-width="0.5" opacity="0.1" transform="rotate(216,120,100)"/>
  <ellipse cx="120" cy="82" rx="6" ry="12" fill="none" stroke="#06b6d4" stroke-width="0.5" opacity="0.1" transform="rotate(288,120,100)"/>
  <circle cx="400" cy="180" r="8" fill="none" stroke="#06b6d4" stroke-width="0.8" opacity="0.12"/>
  <ellipse cx="400" cy="162" rx="6" ry="12" fill="none" stroke="#06b6d4" stroke-width="0.5" opacity="0.1" transform="rotate(0,400,180)"/>
  <ellipse cx="400" cy="162" rx="6" ry="12" fill="none" stroke="#06b6d4" stroke-width="0.5" opacity="0.1" transform="rotate(72,400,180)"/>
  <ellipse cx="400" cy="162" rx="6" ry="12" fill="none" stroke="#06b6d4" stroke-width="0.5" opacity="0.1" transform="rotate(144,400,180)"/>
  <ellipse cx="400" cy="162" rx="6" ry="12" fill="none" stroke="#06b6d4" stroke-width="0.5" opacity="0.1" transform="rotate(216,400,180)"/>
  <ellipse cx="400" cy="162" rx="6" ry="12" fill="none" stroke="#06b6d4" stroke-width="0.5" opacity="0.1" transform="rotate(288,400,180)"/>
  <!-- Scattered small dots (pollen/nature) -->
  <circle cx="80" cy="50" r="1" fill="#06b6d4" opacity="0.1"/>
  <circle cx="450" cy="70" r="1" fill="#06b6d4" opacity="0.1"/>
  <circle cx="60" cy="250" r="1.5" fill="#06b6d4" opacity="0.08"/>
  <circle cx="470" cy="240" r="1" fill="#06b6d4" opacity="0.08"/>
  <circle cx="160" cy="260" r="1" fill="#06b6d4" opacity="0.08"/>
  <circle cx="380" cy="60" r="1.5" fill="#06b6d4" opacity="0.1"/>
</svg>
